<?xml version="1.0" encoding="UTF-8" standalone="no"?>
<!-- Created with Inkscape (http://www.inkscape.org/) -->

<svg
   xmlns:dc="http://purl.org/dc/elements/1.1/"
   xmlns:cc="http://creativecommons.org/ns#"
   xmlns:rdf="http://www.w3.org/1999/02/22-rdf-syntax-ns#"
   xmlns:svg="http://www.w3.org/2000/svg"
   xmlns="http://www.w3.org/2000/svg"
   xmlns:sodipodi="http://sodipodi.sourceforge.net/DTD/sodipodi-0.dtd"
   xmlns:inkscape="http://www.inkscape.org/namespaces/inkscape"
   width="744.09448819"
   height="1052.3622047"
   id="svg3121"
   version="1.1"
   inkscape:version="0.48.4 r9939"
   sodipodi:docname="UCL_logo.svg">
  <defs
     id="defs3123" />
  <sodipodi:namedview
     id="base"
     pagecolor="#ffffff"
     bordercolor="#666666"
     borderopacity="1.0"
     inkscape:pageopacity="0.0"
     inkscape:pageshadow="2"
     inkscape:zoom="0.35"
     inkscape:cx="375"
     inkscape:cy="520"
     inkscape:document-units="px"
     inkscape:current-layer="layer1"
     showgrid="false"
     inkscape:window-width="472"
     inkscape:window-height="383"
     inkscape:window-x="722"
     inkscape:window-y="435"
     inkscape:window-maximized="0" />
  <metadata
     id="metadata3126">
    <rdf:RDF>
      <cc:Work
         rdf:about="">
        <dc:format>image/svg+xml</dc:format>
        <dc:type
           rdf:resource="http://purl.org/dc/dcmitype/StillImage" />
        <dc:title></dc:title>
      </cc:Work>
    </rdf:RDF>
  </metadata>
  <g
     inkscape:label="Layer 1"
     inkscape:groupmode="layer"
     id="layer1">
    <path
       style="fill:#00222b"
       d="m 1.3847986,349.50505 0,-112.67435 370.0439414,0 370.04393,0 0,112.67435 0,112.67433 -16.3372,0 -16.33718,0 0,-17.239 0,-17.23901 -40.51624,0 -40.51624,0 0,-72.69397 0,-72.69395 -31.22364,0 -31.22363,0 0,89.93297 0,89.93296 -25.30742,0 c -13.91906,0 -25.3025,-0.005 -25.29651,-0.0113 0.005,-0.005 0.33438,-0.27758 0.72974,-0.60466 4.78115,-3.95549 8.94721,-8.24488 12.70632,-13.08248 2.99015,-3.84803 5.69645,-8.02461 8.74828,-13.50106 0.78452,-1.40784 3.31667,-6.10214 3.36282,-6.23426 0.0113,-0.0302 -6.11913,-2.99568 -26.55571,-12.84757 -14.61316,-7.04459 -26.58439,-12.81144 -26.60277,-12.81521 -0.022,-0.005 -0.0992,0.18805 -0.2259,0.562 -1.11989,3.30918 -2.21563,5.9525 -3.59485,8.6721 -2.55427,5.0365 -5.54342,9.15848 -9.17783,12.656 -3.85666,3.71142 -8.2865,6.45085 -13.25274,8.19559 -2.9104,1.0225 -6.03547,1.70036 -9.30565,2.01849 -1.59492,0.15507 -2.72936,0.2071 -4.52213,0.2071 -1.4628,0 -2.25385,-0.0261 -3.5027,-0.11577 -12.33874,-0.88444 -22.01917,-6.58831 -28.61082,-16.85797 -5.0796,-7.91393 -8.25798,-18.54579 -9.26393,-30.98839 -0.27399,-3.38855 -0.37248,-6.31078 -0.34538,-10.24668 0.019,-2.7417 0.0674,-4.36855 0.18881,-6.33883 0.83459,-13.53887 4.60648,-24.68276 11.08869,-32.76094 1.07685,-1.34198 1.93779,-2.28994 3.30895,-3.64354 1.20783,-1.19234 2.01738,-1.92236 3.03574,-2.73754 4.40027,-3.52227 9.47947,-5.94437 15.04329,-7.17353 4.02848,-0.88999 8.45083,-1.15143 12.86063,-0.76028 8.39319,0.74443 15.54773,3.75801 21.61738,9.10555 0.87029,0.76676 2.22902,2.09649 3.02141,2.95699 3.10125,3.36766 5.84844,7.39493 8.4337,12.36342 1.07511,2.06624 1.98149,3.99773 3.36103,7.16222 0.20055,0.46005 0.37842,0.83645 0.39526,0.83645 0.0424,0 52.33157,-25.90008 52.33241,-25.92149 10e-4,-0.0511 -1.90072,-3.50473 -2.63315,-4.77935 -3.20875,-5.58428 -6.26492,-9.88431 -10.25521,-14.429 -11.16034,-12.71095 -25.34093,-22.40549 -41.66413,-28.48363 -9.66195,-3.59775 -20.06976,-5.89971 -30.70083,-6.7903 -3.97698,-0.33316 -7.11319,-0.45076 -11.3184,-0.42445 -2.27623,0.0144 -2.86293,0.0269 -4.48293,0.0966 -16.0871,0.69265 -30.97176,4.63235 -44.07122,11.66491 -9.66135,5.1868 -18.29654,12.00269 -25.72265,20.30338 -10.44967,11.6803 -18.28022,26.10036 -22.86742,42.11072 -2.40947,8.40947 -3.90577,17.37006 -4.38118,26.23663 -0.12824,2.39353 -0.15472,3.48403 -0.1556,6.41162 -8e-4,2.98964 0.0276,4.09964 0.16955,6.63942 0.93061,16.64235 5.31908,32.66782 12.7486,46.55448 3.91983,7.32661 8.66117,14.01102 14.11905,19.90523 2.09135,2.25854 4.52937,4.6348 6.70481,6.53488 l 0.38906,0.33981 -20.26201,0.008 c -11.14408,0.004 -29.37669,0.004 -40.51686,0 l -20.25485,-0.008 0.47176,-0.43131 c 1.03032,-0.94201 2.94004,-2.87206 4.08641,-4.13002 6.38878,-7.01062 11.15094,-15.17328 14.31969,-24.545 2.79954,-8.27979 4.38571,-17.4701 4.96715,-28.77961 0.11075,-2.15175 0.16241,-3.64023 0.25406,-7.29291 0.0236,-0.94056 0.0333,-14.95934 0.0398,-57.81405 l 0.009,-56.57242 -31.51162,0 -31.51164,0 0,62.76748 c 0,41.60159 -0.009,63.08921 -0.0265,63.72157 -0.0689,2.48932 -0.21191,4.34947 -0.47338,6.15586 -0.73785,5.09731 -2.49997,9.17946 -5.44431,12.6123 -0.60407,0.70433 -1.31401,1.43798 -1.84551,1.90719 -4.31835,3.81222 -9.99736,6.08449 -16.55938,6.62569 -1.09768,0.0905 -1.52038,0.10519 -3.03217,0.10569 -1.63151,5.2e-4 -2.17885,-0.0204 -3.4635,-0.13199 -5.903,-0.51304 -10.93799,-2.37412 -14.66361,-5.42013 -0.95437,-0.78026 -2.43322,-2.24042 -3.35103,-3.30868 -2.56631,-2.98696 -4.21059,-6.60155 -5.0245,-11.04526 -0.36322,-1.98303 -0.54097,-3.83191 -0.67465,-7.01714 -0.0232,-0.55418 -0.0327,-16.05922 -0.0391,-63.85227 l -0.009,-63.12037 -31.36712,0 -31.36711,0 0,58.50089 c 0,57.90989 5.3e-4,58.52007 0.0524,60.40184 0.17081,6.19467 0.32011,9.64757 0.56237,13.01028 0.82281,11.42 2.78999,20.05326 6.37313,27.96927 0.40092,0.88575 1.3414,2.782 1.79023,3.60963 2.58224,4.76135 5.65007,8.97162 9.52163,13.06738 0.63572,0.67252 2.12101,2.15606 2.67059,2.66743 0.1977,0.18395 0.35943,0.33832 0.35943,0.34305 0,0.005 -35.6765,0.009 -79.281131,0.009 l -79.2812104,-1.9e-4 0,-112.67433 z m 113.2624814,18.68998 0,-2.28697 -1.32658,-0.007 -1.32659,-0.007 -0.007,-2.2543 -0.007,-2.25429 -1.31335,-0.007 -1.31338,-0.008 -0.0125,-1.25469 -0.0125,-1.25468 -0.10463,-0.007 c -0.0576,-0.004 -0.14273,-0.0126 -0.18952,-0.0208 l -0.085,-0.0144 0,-0.18311 c 0,-0.21432 -0.029,-0.28023 -0.19396,-0.44079 l -0.11966,-0.1164 0,-9.49552 0,-9.49552 0.085,-0.022 0.085,-0.0221 0.0181,-0.3382 c 0.0108,-0.18604 0.0324,-0.40699 0.0499,-0.491 0.0374,-0.18019 0.0225,-0.1991 -0.1574,-0.19972 -0.1227,-4.2e-4 -0.21117,-0.0549 -0.21117,-0.13003 0,-0.0236 0.042,-0.0836 0.0934,-0.13326 0.137,-0.13216 0.31216,-0.42975 0.3761,-0.63901 0.0308,-0.10063 0.0655,-0.28568 0.0771,-0.41118 0.0125,-0.1256 0.0359,-0.24609 0.0542,-0.26794 0.0216,-0.0261 0.0791,-0.0396 0.1683,-0.0396 0.0744,0 0.14953,-0.0144 0.1667,-0.0314 0.0218,-0.0217 0.0313,-0.15792 0.0313,-0.44435 l 0,-0.41301 0.75682,0 c 0.51366,0 0.77796,-0.009 0.82264,-0.0301 0.0372,-0.0179 0.0767,-0.0651 0.0909,-0.11112 0.0143,-0.0445 0.13468,-0.69045 0.2687,-1.43522 0.24359,-1.35378 0.24368,-1.35413 0.33543,-1.47581 0.1633,-0.21645 0.42984,-0.34601 0.71197,-0.34601 0.0923,0 0.12393,-0.0113 0.13468,-0.0457 0.0912,-0.29976 0.46011,-1.69683 0.46011,-1.7427 0,-0.0336 -0.0161,-0.0739 -0.0342,-0.0895 -0.0188,-0.0161 -7.65106,-1.66466 -16.960551,-3.66456 l -16.92677,-3.63765 -16.92185,3.63669 c -9.30703,2.00019 -16.93698,3.64924 -16.95546,3.66457 -0.0184,0.0161 -0.0336,0.052 -0.0336,0.0817 0,0.0444 0.2899,1.14965 0.43399,1.65469 l 0.0381,0.13361 0.19213,0.0144 c 0.1286,0.009 0.2397,0.037 0.3358,0.0825 0.17672,0.0836 0.37589,0.28917 0.39777,0.41058 0.50409,2.79886 0.49889,2.77309 0.57318,2.837 0.0707,0.0609 0.0721,0.061 0.84051,0.061 l 0.76966,0 0,0.41304 c 0,0.28635 0.009,0.4226 0.0313,0.44435 0.0179,0.0179 0.0923,0.0314 0.1667,0.0314 0.0799,0 0.14702,0.0144 0.16383,0.0344 0.0161,0.0189 0.0406,0.14128 0.0554,0.27182 0.0465,0.41065 0.16848,0.69951 0.4184,0.99158 0.0721,0.084 0.13111,0.16975 0.13111,0.1901 5e-4,0.0785 -0.0835,0.1327 -0.20641,0.13308 -0.18254,6e-4 -0.20143,0.0216 -0.16419,0.18263 0.0179,0.0741 0.0313,0.27194 0.0315,0.43977 4.3e-4,0.35245 0.0143,0.42279 0.0791,0.42279 0.0259,0 0.0656,0.008 0.0883,0.0161 0.0376,0.0144 0.0413,0.87623 0.0413,9.50474 l 0,9.4889 -0.1438,0.15524 -0.1438,0.15525 0,0.19267 c 0,0.24398 -0.0263,0.27487 -0.23432,0.27487 -0.11465,0 -0.15615,0.0114 -0.16813,0.0413 -0.009,0.0227 -0.0161,0.58734 -0.0161,1.25468 l 0,1.21335 -1.3199,0 -1.3199,0 -0.007,2.2676 -0.007,2.2676 -1.3266,0.007 -1.32657,0.007 0,2.28697 0,2.28697 35.51053,0 35.510511,0 0,-2.28697 z m -60.701551,-9.0641 -0.007,-0.26793 -0.15685,-0.0126 c -0.0862,-0.007 -0.17153,-0.0227 -0.1895,-0.0341 -0.0215,-0.0144 -0.0327,-0.0902 -0.0327,-0.22289 l 0,-0.20186 -0.15686,-0.15525 -0.15686,-0.15525 0,-9.49321 c 0,-8.63243 0.004,-9.49464 0.0413,-9.50905 0.0227,-0.009 0.0626,-0.0161 0.0887,-0.0161 0.0691,0 0.0791,-0.0491 0.0791,-0.38949 0,-0.2048 0.0143,-0.35352 0.0417,-0.44729 0.0394,-0.13235 0.039,-0.14255 -0.005,-0.17473 -0.0258,-0.0188 -0.10088,-0.0341 -0.16723,-0.0341 -0.22755,0 -0.24445,-0.11488 -0.0488,-0.33093 0.14684,-0.16203 0.31346,-0.48892 0.35773,-0.70158 0.0143,-0.0719 0.0356,-0.22219 0.0456,-0.334 0.0108,-0.11175 0.0315,-0.21177 0.0474,-0.22209 0.0161,-0.0112 0.0996,-0.0247 0.18585,-0.032 l 0.15686,-0.0126 0.007,-0.43784 0.007,-0.43784 2.90022,0 2.90023,0 0.007,0.43784 0.007,0.43784 0.15685,0.0126 c 0.0862,0.007 0.16992,0.0216 0.18584,0.032 0.0161,0.01 0.037,0.1065 0.0467,0.21354 0.0369,0.40703 0.19493,0.79865 0.43135,1.06881 0.13003,0.14864 0.14058,0.18747 0.0739,0.27357 -0.0143,0.0179 -0.0805,0.0327 -0.14774,0.0327 -0.0674,0 -0.14183,0.0144 -0.16526,0.0328 -0.0386,0.0295 -0.0392,0.0461 -0.005,0.17563 0.0236,0.0891 0.0377,0.26911 0.0377,0.47785 0,0.24517 0.009,0.33766 0.0327,0.34503 0.0181,0.005 0.0651,0.0179 0.10463,0.0257 l 0.0719,0.0161 0,9.49246 0,9.49244 -0.15685,0.1633 -0.15686,0.1633 0,0.2102 0,0.2102 -0.085,0.0144 c -0.0467,0.008 -0.132,0.0179 -0.18952,0.0208 l -0.10464,0.008 -0.007,0.26793 -0.007,0.26793 -3.03034,0 -3.03036,0 -0.007,-0.26793 z m 11.08315,0 -0.007,-0.26793 -0.10464,-0.008 c -0.0576,-0.004 -0.14272,-0.0126 -0.1895,-0.0208 l -0.0849,-0.0144 0,-0.2102 0,-0.2102 -0.15686,-0.1633 -0.15685,-0.16329 0,-9.49014 c 0,-8.62968 0.004,-9.49161 0.0413,-9.50604 0.0227,-0.009 0.0621,-0.0161 0.0875,-0.0161 0.0411,0 0.0479,-0.0409 0.0633,-0.37892 0.009,-0.20838 0.0336,-0.42639 0.0537,-0.48447 0.0481,-0.13951 0.009,-0.18221 -0.16724,-0.18221 -0.1286,0 -0.20912,-0.0455 -0.20912,-0.11787 0,-0.0196 0.0653,-0.11 0.14506,-0.20072 0.24487,-0.2785 0.37476,-0.6082 0.41729,-1.05922 0.009,-0.1035 0.0317,-0.20001 0.0488,-0.21418 0.0179,-0.0144 0.10123,-0.0294 0.18696,-0.0337 l 0.15597,-0.007 0.007,-0.43783 0.007,-0.43784 2.90022,0 2.90022,0 0.007,0.43784 0.007,0.43783 0.1497,0.007 c 0.17886,0.009 0.22932,0.061 0.22932,0.23463 0,0.32141 0.1873,0.79856 0.41592,1.0595 0.19286,0.22016 0.17599,0.33177 -0.0503,0.33177 -0.0662,0 -0.14202,0.0161 -0.16813,0.0349 -0.0429,0.0314 -0.0442,0.0451 -0.0143,0.13719 0.0188,0.0564 0.041,0.27291 0.0492,0.48138 l 0.0143,0.37903 0.0653,0.009 c 0.036,0.005 0.0801,0.0212 0.098,0.0359 0.0259,0.0214 0.0327,1.95453 0.0327,9.50657 l 0,9.47972 -0.15686,0.15524 -0.15686,0.15525 0,0.20186 c 0,0.1329 -0.0108,0.20905 -0.0327,0.2229 -0.0181,0.0114 -0.1032,0.027 -0.18951,0.0341 l -0.15686,0.0126 -0.007,0.26793 -0.007,0.26793 -3.03036,0 -3.03036,0 -0.007,-0.26793 z m 11.08876,0.0349 c 0,-0.31504 -4.4e-4,-0.31581 -0.1839,-0.31581 -0.20628,0 -0.23432,-0.0319 -0.23432,-0.26579 l 0,-0.18363 -0.1438,-0.16383 -0.1438,-0.16384 0.007,-9.49851 0.007,-9.49852 0.0785,-0.0144 0.0783,-0.0144 0.0161,-0.36575 c 0.009,-0.20117 0.0313,-0.41538 0.0497,-0.47603 0.0451,-0.14953 0.0125,-0.18559 -0.17886,-0.19564 -0.13343,-0.008 -0.15007,-0.0144 -0.17206,-0.0779 -0.0218,-0.0625 -0.0108,-0.0851 0.10552,-0.21226 0.14541,-0.15919 0.29617,-0.42877 0.36097,-0.64571 0.0236,-0.0791 0.0526,-0.2538 0.0642,-0.38829 0.0143,-0.16096 0.0336,-0.25239 0.0576,-0.26754 0.02,-0.0126 0.0957,-0.0233 0.16831,-0.0234 0.0726,-2.6e-4 0.14612,-0.0144 0.16329,-0.0319 0.0218,-0.0217 0.0313,-0.15793 0.0313,-0.44436 l 0,-0.41301 2.88842,0 2.8884,0 0,0.41301 c 0,0.28638 0.009,0.42261 0.0313,0.44436 0.0179,0.0179 0.0923,0.0314 0.16669,0.0314 0.0848,0 0.14685,0.0144 0.16599,0.037 0.0161,0.0204 0.0409,0.13504 0.0535,0.25485 0.0435,0.41587 0.18256,0.74308 0.43541,1.02448 0.11912,0.13253 0.132,0.16992 0.0871,0.25374 -0.0216,0.0403 -0.0554,0.0506 -0.1667,0.0506 -0.18063,0 -0.21833,0.0392 -0.17528,0.18272 0.0161,0.0566 0.0381,0.27368 0.0472,0.48274 l 0.0161,0.38014 0.0691,0 c 0.0381,0 0.0832,0.0144 0.10051,0.0312 0.0243,0.0243 0.0313,2.17124 0.0313,9.50398 l 0,9.4726 -0.15686,0.1633 -0.15686,0.1633 0,0.18544 c 0,0.23594 -0.0277,0.26757 -0.23432,0.26757 -0.18345,0 -0.1839,7.5e-4 -0.1839,0.31581 l 0,0.23313 -3.01911,0 -3.01913,0 0,-0.23313 z m 11.08317,0.009 c 0,-0.29366 -0.0179,-0.32503 -0.18562,-0.32503 -0.21386,0 -0.23263,-0.0208 -0.23263,-0.2566 l 0,-0.20248 -0.15685,-0.15525 -0.15686,-0.15525 0,-9.47972 c 0,-7.55203 0.007,-9.48518 0.0327,-9.50656 0.0179,-0.0144 0.0621,-0.031 0.098,-0.0359 l 0.0653,-0.009 0.0161,-0.39208 c 0.009,-0.21565 0.0311,-0.43212 0.0497,-0.48104 0.03,-0.0794 0.0284,-0.0929 -0.0143,-0.12412 -0.0265,-0.0193 -0.1023,-0.0353 -0.16867,-0.0353 -0.22275,0 -0.24018,-0.0976 -0.0547,-0.30576 0.23626,-0.26507 0.37616,-0.61609 0.41072,-1.03049 0.009,-0.11075 0.0265,-0.21709 0.0385,-0.23633 0.0125,-0.0205 0.0894,-0.0404 0.18596,-0.0481 l 0.16437,-0.0126 0.007,-0.43782 0.007,-0.43785 2.90084,0 2.90087,0 0,0.41304 c 0,0.28635 0.009,0.4226 0.0313,0.44435 0.0179,0.0179 0.0923,0.0312 0.1667,0.0312 0.0765,0 0.14702,0.0144 0.16204,0.0328 0.0143,0.0179 0.0347,0.115 0.0443,0.21565 0.0403,0.41626 0.19489,0.79837 0.43363,1.0712 0.12555,0.14345 0.13575,0.18277 0.0694,0.26843 -0.0143,0.018 -0.0814,0.0327 -0.15096,0.0327 -0.17906,0 -0.21374,0.0418 -0.16616,0.19969 0.0231,0.0764 0.0368,0.24251 0.0368,0.44275 0,0.35409 0.009,0.40315 0.0791,0.40315 0.0261,0 0.066,0.008 0.0887,0.0161 0.0376,0.0144 0.0413,0.87648 0.0413,9.50747 l 0,9.49164 -0.15006,0.15167 -0.15006,0.15167 -0.009,0.21501 c -0.005,0.12143 -0.0225,0.22332 -0.0394,0.23417 -0.0161,0.0101 -0.096,0.0193 -0.17725,0.0197 -0.17814,5e-4 -0.17924,10e-4 -0.17924,0.31623 l 0,0.23312 -3.0191,0 -3.01911,0 0,-0.22391 z m 11.05138,-0.044 -0.007,-0.26793 -0.10464,-0.008 c -0.0576,-0.004 -0.14273,-0.0126 -0.18952,-0.0208 l -0.085,-0.0144 0,-0.2102 0,-0.21019 -0.15686,-0.1633 -0.15685,-0.1633 0,-9.49014 c 0,-8.62968 0.004,-9.49161 0.0413,-9.50603 0.0227,-0.009 0.0624,-0.0161 0.0882,-0.0161 0.0619,0 0.0796,-0.0951 0.0796,-0.42647 0,-0.1447 0.0143,-0.33214 0.0317,-0.41654 0.0376,-0.18175 0.0215,-0.20156 -0.16366,-0.20219 -0.22756,-7.5e-4 -0.24418,-0.121 -0.0465,-0.33653 0.14058,-0.15347 0.30535,-0.46895 0.35698,-0.68398 0.0161,-0.0651 0.0365,-0.2154 0.0463,-0.33409 0.0107,-0.11875 0.0309,-0.22422 0.0469,-0.23448 0.0161,-0.01 0.0994,-0.0247 0.18568,-0.0319 l 0.15686,-0.0126 0.007,-0.43784 0.007,-0.43785 2.900221,0 2.90021,0 0.007,0.43785 0.007,0.43784 0.16437,0.0126 c 0.096,0.007 0.17332,0.0276 0.18586,0.0479 0.0125,0.0191 0.0288,0.11912 0.0377,0.22216 0.0347,0.40104 0.18589,0.77432 0.41538,1.02544 0.18741,0.20503 0.1658,0.3251 -0.0585,0.3251 -0.0663,0 -0.13969,0.0144 -0.1633,0.0327 -0.0388,0.0295 -0.0392,0.0461 -0.005,0.17565 0.0227,0.0856 0.0377,0.26538 0.0377,0.44877 0,0.33927 0.0108,0.38852 0.0791,0.38852 0.0261,0 0.066,0.008 0.0887,0.0161 0.0376,0.0144 0.0413,0.87635 0.0413,9.50604 l 0,9.49013 -0.15686,0.1633 -0.15686,0.1633 0,0.19739 c 0,0.22944 -0.02,0.25151 -0.22831,0.25151 -0.0699,0 -0.1413,0.0144 -0.15847,0.0314 -0.0199,0.0199 -0.0313,0.12017 -0.0313,0.27445 l 0,0.2431 -3.01819,0 -3.018201,0 -0.007,-0.26793 z m -26.76202,-37.0732 7.67114,-1.69209 7.72503,1.70314 c 4.24876,0.93673 7.73971,1.70287 7.75769,1.70253 0.0256,-4.7e-4 0.0327,-0.24275 0.0327,-1.12247 0,-0.61704 -0.007,-1.14129 -0.0161,-1.16505 -0.009,-0.0238 -0.11197,-0.0878 -0.22873,-0.14238 -0.23895,-0.11175 -0.35179,-0.2162 -0.43952,-0.40682 -0.0596,-0.12931 -0.0603,-0.14238 -0.0683,-1.32295 l -0.009,-1.1923 0.10177,-0.0161 c 0.24525,-0.0391 0.38102,-0.22669 0.42017,-0.58013 0.0125,-0.1155 0.0413,-0.24496 0.0635,-0.28753 0.0705,-0.13539 0.219,-0.24184 0.39782,-0.2849 0.0429,-0.0113 0.0869,-0.0325 0.0977,-0.0494 0.0108,-0.0161 0.0197,-0.17797 0.0198,-0.35805 5.6e-4,-0.45414 0.0108,-0.44367 -0.40125,-0.44367 -0.21601,0 -0.33416,-0.0112 -0.36296,-0.0327 -0.0349,-0.0267 -0.0442,-0.096 -0.0508,-0.38117 -0.0108,-0.43751 0.005,-0.4226 -0.41634,-0.4226 -0.39982,0 -0.38896,0.0112 -0.38896,-0.39076 0,-0.21548 -0.0108,-0.31653 -0.0327,-0.33484 -0.0179,-0.0144 -0.13612,-0.0315 -0.26273,-0.0376 -0.20717,-0.0113 -0.23706,-0.0186 -0.30061,-0.0821 l -0.0705,-0.0704 -0.0161,-0.89471 c -0.0161,-0.9121 -0.0225,-1.0245 -0.091,-1.7574 -0.22859,-2.44733 -0.90041,-4.62366 -1.94063,-6.28654 -0.39616,-0.63329 -1.00619,-1.46044 -1.50365,-2.03889 -0.33205,-0.38607 -1.14326,-1.19145 -1.54176,-1.53062 -1.09686,-0.93359 -2.25717,-1.6893 -3.65366,-2.37966 l -0.30411,-0.15024 -0.0406,-0.1463 c -0.10213,-0.36711 -0.44835,-0.6174 -1.23318,-0.89139 -0.52299,-0.18255 -0.56819,-0.22106 -0.58381,-0.49736 -0.0179,-0.3122 0.064,-0.40465 0.38825,-0.43928 0.1007,-0.0113 0.1976,-0.0341 0.21542,-0.052 0.0227,-0.0226 0.0324,-0.14166 0.0324,-0.39633 0,-0.4925 0.0143,-0.4784 -0.49649,-0.49609 -0.47385,-0.0161 -0.46493,-0.009 -0.48582,-0.36098 -0.0161,-0.27691 -0.0456,-0.34742 -0.18004,-0.43626 l -0.0792,-0.0522 0,-1.8903 c 0,-1.25319 0.009,-1.90735 0.027,-1.94087 0.0197,-0.0366 0.0549,-0.0506 0.12878,-0.0506 0.15364,0 0.18392,-0.0468 0.18392,-0.28418 0,-0.12225 -0.0125,-0.21439 -0.0313,-0.23339 -0.0179,-0.0179 -0.0805,-0.0312 -0.14058,-0.0312 -0.13522,0 -0.17189,-0.0408 -0.18806,-0.20856 -0.0227,-0.23732 0.0377,-0.34035 0.19981,-0.34035 0.0537,0 0.11161,-0.0144 0.12877,-0.0312 0.0426,-0.0426 0.0415,-0.41617 -10e-4,-0.47081 -0.0215,-0.0276 -0.0875,-0.0453 -0.1935,-0.0522 -0.13915,-0.009 -0.17965,-0.0249 -0.30061,-0.11625 -0.24927,-0.1886 -0.67317,-0.58376 -0.90289,-0.84176 -0.32925,-0.36977 -0.35339,-0.40635 -0.37856,-0.57359 -0.0179,-0.1155 -0.0399,-0.1649 -0.10087,-0.22078 -0.0431,-0.0395 -0.10535,-0.0719 -0.13826,-0.0719 -0.13897,0 -0.19792,-0.14183 -0.0726,-0.17475 0.0293,-0.007 0.0558,-0.0451 0.0653,-0.0924 0.0417,-0.20817 -5.3e-4,-0.3385 -0.21114,-0.6524 l -0.12341,-0.18406 -0.0467,0.0576 c -0.0258,0.0316 -0.10267,0.14739 -0.17081,0.25691 -0.1134,0.18185 -0.12503,0.2158 -0.13379,0.38907 -0.009,0.18471 -0.007,0.1905 0.0592,0.21597 0.13844,0.0526 0.0976,0.1838 -0.0571,0.1838 -0.10426,0 -0.20617,0.12716 -0.22777,0.28416 -0.0161,0.11588 -0.0444,0.16922 -0.17961,0.33747 -0.311,0.38671 -1.01662,1.0544 -1.2342,1.16786 -0.0422,0.022 -0.13611,0.04 -0.20862,0.04 -0.0726,0 -0.14612,0.0144 -0.16329,0.0315 -0.0191,0.0192 -0.0313,0.11325 -0.0313,0.24309 0,0.23983 0.0195,0.27427 0.1556,0.27486 0.051,2.7e-4 0.1057,0.009 0.12163,0.0196 0.0921,0.0615 0.11966,0.31511 0.049,0.45181 -0.0347,0.067 -0.0544,0.0771 -0.15167,0.0771 -0.0615,0 -0.12593,0.0144 -0.14309,0.0312 -0.0193,0.0192 -0.0313,0.11425 -0.0313,0.24743 0,0.24258 0.0197,0.27013 0.19341,0.27013 0.0646,0 0.10052,0.0161 0.1193,0.0506 0.0179,0.0334 0.027,0.68919 0.027,1.94527 l 0,1.89468 -0.0887,0.0549 c -0.12877,0.0796 -0.17259,0.19283 -0.17259,0.4447 0,0.19119 -0.007,0.21944 -0.0642,0.27705 -0.0612,0.0612 -0.0791,0.0643 -0.3882,0.0643 -0.36245,0 -0.46773,0.0247 -0.51119,0.12013 -0.0179,0.0375 -0.0297,0.20315 -0.0297,0.39077 0,0.38339 0.0234,0.42997 0.21565,0.43022 0.17206,2.6e-4 0.29726,0.046 0.37334,0.13628 0.0648,0.0771 0.0689,0.0968 0.0601,0.29005 -0.009,0.20334 -0.0108,0.20908 -0.10928,0.29375 -0.0551,0.0476 -0.1897,0.11825 -0.30027,0.15739 -0.71971,0.25519 -0.97757,0.38449 -1.19552,0.59948 -0.12359,0.12187 -0.19249,0.25071 -0.23045,0.43101 -0.0108,0.0531 -0.0717,0.0939 -0.32203,0.21774 -1.40203,0.69297 -2.54106,1.43252 -3.64105,2.36401 -0.43355,0.36715 -1.32938,1.26835 -1.68197,1.69207 -0.50685,0.6091 -1.11872,1.4615 -1.4818,2.06429 -0.93715,1.55586 -1.56823,3.59619 -1.8153,5.86904 -0.0724,0.66604 -0.0964,1.08632 -0.11375,1.99256 l -0.0179,0.90779 -0.0705,0.0704 c -0.0635,0.0635 -0.0934,0.0716 -0.30061,0.0821 -0.12645,0.008 -0.24475,0.0234 -0.26273,0.0378 -0.0227,0.0183 -0.0327,0.11925 -0.0327,0.33482 0,0.40092 0.0108,0.39077 -0.38259,0.39077 -0.16527,0 -0.32322,0.0126 -0.35103,0.027 -0.046,0.0248 -0.0506,0.0576 -0.0506,0.36596 0,0.45234 0.009,0.44344 -0.42724,0.44344 -0.42799,0 -0.41305,-0.0161 -0.40345,0.45675 l 0.007,0.35946 0.16992,0.0613 c 0.26356,0.095 0.39152,0.26999 0.39195,0.53586 2.5e-4,0.14309 0.0733,0.35754 0.15203,0.44556 0.0411,0.046 0.13092,0.0996 0.2143,0.12788 l 0.14363,0.0486 0,1.15845 c 0,1.04426 -0.005,1.17161 -0.0467,1.29199 -0.0719,0.20613 -0.19811,0.33341 -0.44815,0.45221 -0.1193,0.0567 -0.22448,0.12262 -0.23361,0.14631 -0.009,0.0238 -0.0161,0.54963 -0.0161,1.16854 l 0,1.12529 0.085,-0.0144 c 0.0467,-0.007 3.53698,-0.7753 7.75612,-1.70595 z"
       id="path3081"
       inkscape:connector-curvature="0"
       inkscape:export-xdpi="90"
       inkscape:export-ydpi="90" />
  </g>
</svg>
